%TF.GenerationSoftware,KiCad,Pcbnew,9.0.7*%
%TF.CreationDate,2026-03-26T11:46:42-04:00*%
%TF.ProjectId,heartpcb,68656172-7470-4636-922e-6b696361645f,rev?*%
%TF.SameCoordinates,Original*%
%TF.FileFunction,Copper,L1,Top*%
%TF.FilePolarity,Positive*%
%FSLAX46Y46*%
G04 Gerber Fmt 4.6, Leading zero omitted, Abs format (unit mm)*
G04 Created by KiCad (PCBNEW 9.0.7) date 2026-03-26 11:46:42*
%MOMM*%
%LPD*%
G01*
G04 APERTURE LIST*
G04 Aperture macros list*
%AMRoundRect*
0 Rectangle with rounded corners*
0 $1 Rounding radius*
0 $2 $3 $4 $5 $6 $7 $8 $9 X,Y pos of 4 corners*
0 Add a 4 corners polygon primitive as box body*
4,1,4,$2,$3,$4,$5,$6,$7,$8,$9,$2,$3,0*
0 Add four circle primitives for the rounded corners*
1,1,$1+$1,$2,$3*
1,1,$1+$1,$4,$5*
1,1,$1+$1,$6,$7*
1,1,$1+$1,$8,$9*
0 Add four rect primitives between the rounded corners*
20,1,$1+$1,$2,$3,$4,$5,0*
20,1,$1+$1,$4,$5,$6,$7,0*
20,1,$1+$1,$6,$7,$8,$9,0*
20,1,$1+$1,$8,$9,$2,$3,0*%
G04 Aperture macros list end*
%TA.AperFunction,ComponentPad*%
%ADD10C,1.800000*%
%TD*%
%TA.AperFunction,ComponentPad*%
%ADD11R,1.800000X1.800000*%
%TD*%
%TA.AperFunction,ComponentPad*%
%ADD12C,2.000000*%
%TD*%
%TA.AperFunction,ComponentPad*%
%ADD13C,1.440000*%
%TD*%
%TA.AperFunction,ComponentPad*%
%ADD14C,1.600000*%
%TD*%
%TA.AperFunction,ComponentPad*%
%ADD15RoundRect,0.250000X-0.550000X-0.550000X0.550000X-0.550000X0.550000X0.550000X-0.550000X0.550000X0*%
%TD*%
%TA.AperFunction,SMDPad,CuDef*%
%ADD16RoundRect,0.150000X-0.825000X-0.150000X0.825000X-0.150000X0.825000X0.150000X-0.825000X0.150000X0*%
%TD*%
%TA.AperFunction,Conductor*%
%ADD17C,0.200000*%
%TD*%
G04 APERTURE END LIST*
D10*
%TO.P,D7,2,A*%
%TO.N,TOUT*%
X84290000Y-59250000D03*
D11*
%TO.P,D7,1,K*%
%TO.N,GND*%
X81750000Y-59250000D03*
%TD*%
D10*
%TO.P,D16,2,A*%
%TO.N,TOUT*%
X130500000Y-116400000D03*
D11*
%TO.P,D16,1,K*%
%TO.N,GND*%
X127960000Y-116400000D03*
%TD*%
%TO.P,D8,1,K*%
%TO.N,GND*%
X97860000Y-63700000D03*
D10*
%TO.P,D8,2,A*%
%TO.N,TOUT*%
X100400000Y-63700000D03*
%TD*%
D11*
%TO.P,D6,1,K*%
%TO.N,GND*%
X68960000Y-70500000D03*
D10*
%TO.P,D6,2,A*%
%TO.N,TOUT*%
X71500000Y-70500000D03*
%TD*%
%TO.P,D5,2,A*%
%TO.N,TOUT*%
X71140000Y-82600000D03*
D11*
%TO.P,D5,1,K*%
%TO.N,GND*%
X68600000Y-82600000D03*
%TD*%
D12*
%TO.P,SW1,1,1*%
%TO.N,Net-(BT1-+)*%
X103300000Y-102100000D03*
X109800000Y-102100000D03*
%TO.P,SW1,2,2*%
%TO.N,Net-(U1-VCC)*%
X103300000Y-106600000D03*
X109800000Y-106600000D03*
%TD*%
D13*
%TO.P,R3,1*%
%TO.N,Net-(U1-DISCH)*%
X89860000Y-86040000D03*
%TO.P,R3,2*%
%TO.N,Net-(U1-VCC)*%
X92400000Y-83500000D03*
%TO.P,R3,3*%
%TO.N,N/C*%
X89860000Y-80960000D03*
%TD*%
D14*
%TO.P,R2,1*%
%TO.N,Net-(U1-DISCH)*%
X105250000Y-87060000D03*
%TO.P,R2,2*%
%TO.N,Net-(U1-THRES)*%
X105250000Y-79440000D03*
%TD*%
%TO.P,R1,1*%
%TO.N,Net-(U1-OUT)*%
X98500000Y-87410000D03*
%TO.P,R1,2*%
%TO.N,TOUT*%
X98500000Y-79790000D03*
%TD*%
D11*
%TO.P,D15,1,K*%
%TO.N,GND*%
X143060000Y-101100000D03*
D10*
%TO.P,D15,2,A*%
%TO.N,TOUT*%
X145600000Y-101100000D03*
%TD*%
D11*
%TO.P,D14,1,K*%
%TO.N,GND*%
X154160000Y-87300000D03*
D10*
%TO.P,D14,2,A*%
%TO.N,TOUT*%
X156700000Y-87300000D03*
%TD*%
D11*
%TO.P,D13,1,K*%
%TO.N,GND*%
X151760000Y-73800000D03*
D10*
%TO.P,D13,2,A*%
%TO.N,TOUT*%
X154300000Y-73800000D03*
%TD*%
D11*
%TO.P,D12,1,K*%
%TO.N,GND*%
X144060000Y-63300000D03*
D10*
%TO.P,D12,2,A*%
%TO.N,TOUT*%
X146600000Y-63300000D03*
%TD*%
D11*
%TO.P,D11,1,K*%
%TO.N,GND*%
X132660000Y-58100000D03*
D10*
%TO.P,D11,2,A*%
%TO.N,TOUT*%
X135200000Y-58100000D03*
%TD*%
D11*
%TO.P,D10,1,K*%
%TO.N,GND*%
X121760000Y-63800000D03*
D10*
%TO.P,D10,2,A*%
%TO.N,TOUT*%
X124300000Y-63800000D03*
%TD*%
D11*
%TO.P,D9,1,K*%
%TO.N,GND*%
X110960000Y-73800000D03*
D10*
%TO.P,D9,2,A*%
%TO.N,TOUT*%
X113500000Y-73800000D03*
%TD*%
D11*
%TO.P,D4,1,K*%
%TO.N,GND*%
X73100000Y-96500000D03*
D10*
%TO.P,D4,2,A*%
%TO.N,TOUT*%
X75640000Y-96500000D03*
%TD*%
D11*
%TO.P,D3,1,K*%
%TO.N,GND*%
X84560000Y-107100000D03*
D10*
%TO.P,D3,2,A*%
%TO.N,TOUT*%
X87100000Y-107100000D03*
%TD*%
D11*
%TO.P,D2,1,K*%
%TO.N,GND*%
X97060000Y-117600000D03*
D10*
%TO.P,D2,2,A*%
%TO.N,TOUT*%
X99600000Y-117600000D03*
%TD*%
D11*
%TO.P,D1,1,K*%
%TO.N,GND*%
X109700000Y-126900000D03*
D10*
%TO.P,D1,2,A*%
%TO.N,TOUT*%
X112240000Y-126900000D03*
%TD*%
D15*
%TO.P,C1,1*%
%TO.N,Net-(U1-THRES)*%
X131300000Y-78600000D03*
D14*
%TO.P,C1,2*%
%TO.N,GND*%
X133800000Y-78600000D03*
%TD*%
D15*
%TO.P,BT1,1,+*%
%TO.N,Net-(BT1-+)*%
X112700000Y-114100000D03*
D14*
%TO.P,BT1,2,-*%
%TO.N,GND*%
X116300000Y-114100000D03*
%TD*%
D16*
%TO.P,U1,1,GND*%
%TO.N,GND*%
X124850000Y-94190000D03*
%TO.P,U1,2,TRIG*%
%TO.N,Net-(U1-THRES)*%
X124850000Y-95460000D03*
%TO.P,U1,3,OUT*%
%TO.N,Net-(U1-OUT)*%
X124850000Y-96730000D03*
%TO.P,U1,4,~{RST}*%
%TO.N,Net-(U1-VCC)*%
X124850000Y-98000000D03*
%TO.P,U1,5,CONT*%
%TO.N,unconnected-(U1-CONT-Pad5)*%
X129800000Y-98000000D03*
%TO.P,U1,6,THRES*%
%TO.N,Net-(U1-THRES)*%
X129800000Y-96730000D03*
%TO.P,U1,7,DISCH*%
%TO.N,Net-(U1-DISCH)*%
X129800000Y-95460000D03*
%TO.P,U1,8,VCC*%
%TO.N,Net-(U1-VCC)*%
X129800000Y-94190000D03*
%TD*%
D17*
%TO.N,Net-(U1-DISCH)*%
X96500000Y-83748000D02*
X96999000Y-83249000D01*
X105250000Y-87060000D02*
X101810000Y-87060000D01*
X101810000Y-87060000D02*
X97999000Y-83249000D01*
X97999000Y-83249000D02*
X96999000Y-83249000D01*
X96500000Y-86967050D02*
X96500000Y-83748000D01*
X129800000Y-95460000D02*
X129453032Y-95460000D01*
X134750000Y-95500000D02*
X134750000Y-101500000D01*
X129453032Y-95460000D02*
X128524000Y-94530968D01*
X97769000Y-82479000D02*
X91977087Y-82479000D01*
X132839000Y-93589000D02*
X134750000Y-95500000D01*
X134750000Y-101500000D02*
X133750000Y-102500000D01*
X108886450Y-98363550D02*
X99033900Y-88511000D01*
X128524000Y-94530968D02*
X128524000Y-93849032D01*
X133750000Y-102500000D02*
X132250000Y-102500000D01*
X129250000Y-104750000D02*
X122863550Y-98363550D01*
X91977087Y-82479000D02*
X89860000Y-84596087D01*
X89860000Y-84596087D02*
X89860000Y-86040000D01*
X128784032Y-93589000D02*
X132839000Y-93589000D01*
X132250000Y-102500000D02*
X130000000Y-104750000D01*
X99033900Y-88511000D02*
X98043950Y-88511000D01*
X130000000Y-104750000D02*
X129250000Y-104750000D01*
X128524000Y-93849032D02*
X128784032Y-93589000D01*
X122863550Y-98363550D02*
X108886450Y-98363550D01*
X98043950Y-88511000D02*
X96500000Y-86967050D01*
X96999000Y-83249000D02*
X97769000Y-82479000D01*
%TO.N,Net-(U1-VCC)*%
X104000000Y-112500000D02*
X107500000Y-112500000D01*
X125865968Y-96129000D02*
X123434032Y-96129000D01*
X88839000Y-97339000D02*
X104000000Y-112500000D01*
X107500000Y-112500000D02*
X107750000Y-112250000D01*
X123434032Y-96129000D02*
X109383032Y-82078000D01*
X109383032Y-82078000D02*
X91810987Y-82078000D01*
X88839000Y-85049987D02*
X88839000Y-97339000D01*
X107750000Y-112250000D02*
X107750000Y-108650000D01*
X107750000Y-108650000D02*
X109800000Y-106600000D01*
%TO.N,Net-(U1-THRES)*%
X105250000Y-79440000D02*
X107440000Y-79440000D01*
X107440000Y-79440000D02*
X117750000Y-89750000D01*
X117750000Y-89750000D02*
X120250000Y-89750000D01*
X120250000Y-89750000D02*
X121250000Y-88750000D01*
X121250000Y-88750000D02*
X123250000Y-88750000D01*
X129800000Y-96730000D02*
X127034068Y-96730000D01*
X127034068Y-96730000D02*
X125764068Y-95460000D01*
X125764068Y-95460000D02*
X124850000Y-95460000D01*
%TO.N,Net-(U1-VCC)*%
X124850000Y-98000000D02*
X125196968Y-98000000D01*
X126126000Y-97070968D02*
X126126000Y-96389032D01*
X125196968Y-98000000D02*
X126126000Y-97070968D01*
X126126000Y-96389032D02*
X125865968Y-96129000D01*
X131750000Y-95165001D02*
X131750000Y-100000000D01*
X130774999Y-94190000D02*
X131750000Y-95165001D01*
X131750000Y-100000000D02*
X126850000Y-100000000D01*
X126850000Y-100000000D02*
X124850000Y-98000000D01*
%TO.N,GND*%
X133005100Y-93188000D02*
X125852000Y-93188000D01*
X125852000Y-93188000D02*
X124850000Y-94190000D01*
%TO.N,Net-(U1-VCC)*%
X88839000Y-95339000D02*
X100750000Y-107250000D01*
X91810987Y-82078000D02*
X88839000Y-85049987D01*
X88839000Y-85049987D02*
X88839000Y-95339000D01*
X100750000Y-107250000D02*
X101400000Y-106600000D01*
X101400000Y-106600000D02*
X103300000Y-106600000D01*
%TO.N,Net-(U1-THRES)*%
X126250000Y-88750000D02*
X123250000Y-88750000D01*
X124503032Y-95460000D02*
X123250000Y-94206968D01*
X123250000Y-94206968D02*
X123250000Y-88750000D01*
%TO.N,GND*%
X138150000Y-101100000D02*
X138150000Y-98332900D01*
X138150000Y-98332900D02*
X133005100Y-93188000D01*
X127960000Y-111290000D02*
X138150000Y-101100000D01*
%TO.N,Net-(U1-DISCH)*%
X128825001Y-95460000D02*
X129800000Y-95460000D01*
%TO.N,Net-(U1-OUT)*%
X107170000Y-96080000D02*
X98500000Y-87410000D01*
X107820000Y-96730000D02*
X124850000Y-96730000D01*
X107170000Y-96080000D02*
X107820000Y-96730000D01*
%TO.N,Net-(U1-VCC)*%
X130774999Y-94190000D02*
X129800000Y-94190000D01*
%TO.N,Net-(U1-THRES)*%
X131300000Y-83700000D02*
X126250000Y-88750000D01*
X131300000Y-78600000D02*
X131300000Y-83700000D01*
%TO.N,TOUT*%
X103289000Y-75001000D02*
X103270000Y-75020000D01*
X99300000Y-64800000D02*
X99199000Y-64901000D01*
X99199000Y-70949000D02*
X103270000Y-75020000D01*
X99199000Y-64901000D02*
X99199000Y-70949000D01*
X103270000Y-75020000D02*
X98500000Y-79790000D01*
X113500000Y-73800000D02*
X112299000Y-75001000D01*
X112299000Y-75001000D02*
X103289000Y-75001000D01*
X124300000Y-63800000D02*
X114300000Y-73800000D01*
X114300000Y-73800000D02*
X113500000Y-73800000D01*
X135200000Y-58100000D02*
X135200000Y-59800000D01*
X135200000Y-59800000D02*
X131200000Y-63800000D01*
X131200000Y-63800000D02*
X124300000Y-63800000D01*
X149300000Y-63300000D02*
X155000000Y-69000000D01*
X146600000Y-63300000D02*
X149300000Y-63300000D01*
X155000000Y-69000000D02*
X154300000Y-69700000D01*
X154300000Y-69700000D02*
X154300000Y-73800000D01*
X154300000Y-73800000D02*
X156700000Y-76200000D01*
X156700000Y-76200000D02*
X156700000Y-87300000D01*
X156700000Y-87300000D02*
X156700000Y-90000000D01*
X156700000Y-90000000D02*
X145600000Y-101100000D01*
%TO.N,Net-(BT1-+)*%
X103300000Y-102100000D02*
X109800000Y-102100000D01*
X112700000Y-114100000D02*
X112700000Y-105000000D01*
X112700000Y-105000000D02*
X109800000Y-102100000D01*
%TO.N,Net-(U1-VCC)*%
X109800000Y-106600000D02*
X103300000Y-106600000D01*
%TO.N,TOUT*%
X93100000Y-107100000D02*
X99750000Y-113750000D01*
X99750000Y-113750000D02*
X99600000Y-113900000D01*
X87100000Y-107100000D02*
X93100000Y-107100000D01*
X99600000Y-113900000D02*
X99600000Y-117600000D01*
X79250000Y-96500000D02*
X87250000Y-104500000D01*
X75640000Y-96500000D02*
X79250000Y-96500000D01*
X87250000Y-104500000D02*
X87100000Y-104650000D01*
X87100000Y-104650000D02*
X87100000Y-107100000D01*
X71140000Y-91140000D02*
X71500000Y-91500000D01*
X71140000Y-82600000D02*
X71140000Y-91140000D01*
X71500000Y-91500000D02*
X71500000Y-92360000D01*
X71500000Y-92360000D02*
X75640000Y-96500000D01*
X71500000Y-70500000D02*
X71500000Y-82240000D01*
X71500000Y-82240000D02*
X71140000Y-82600000D01*
X84290000Y-59250000D02*
X73040000Y-70500000D01*
X73040000Y-70500000D02*
X71500000Y-70500000D01*
X100400000Y-63700000D02*
X99300000Y-64800000D01*
X99199000Y-64901000D02*
X89941000Y-64901000D01*
X89941000Y-64901000D02*
X84290000Y-59250000D01*
%TO.N,GND*%
X97860000Y-63700000D02*
X97860000Y-60390000D01*
X100250000Y-58000000D02*
X103000000Y-58000000D01*
X97860000Y-60390000D02*
X100250000Y-58000000D01*
X103000000Y-58000000D02*
X110960000Y-65960000D01*
X110960000Y-65960000D02*
X110960000Y-73800000D01*
X121760000Y-63800000D02*
X120960000Y-63800000D01*
X120960000Y-63800000D02*
X110960000Y-73800000D01*
X132660000Y-58100000D02*
X123650000Y-58100000D01*
X123650000Y-58100000D02*
X121760000Y-59990000D01*
X121760000Y-59990000D02*
X121760000Y-63800000D01*
X144060000Y-63300000D02*
X144060000Y-60810000D01*
X133250000Y-52500000D02*
X132660000Y-53090000D01*
X144060000Y-60810000D02*
X135750000Y-52500000D01*
X135750000Y-52500000D02*
X133250000Y-52500000D01*
X132660000Y-53090000D02*
X132660000Y-58100000D01*
X151760000Y-73800000D02*
X149550000Y-73800000D01*
X144060000Y-68310000D02*
X144060000Y-63300000D01*
X149550000Y-73800000D02*
X144060000Y-68310000D01*
X154160000Y-87300000D02*
X154160000Y-81160000D01*
X154160000Y-81160000D02*
X151760000Y-78760000D01*
X151760000Y-78760000D02*
X151760000Y-73800000D01*
X143060000Y-101100000D02*
X143060000Y-98400000D01*
X143060000Y-98400000D02*
X154160000Y-87300000D01*
X127960000Y-116400000D02*
X127960000Y-111290000D01*
X138150000Y-101100000D02*
X143060000Y-101100000D01*
X127960000Y-116400000D02*
X118600000Y-116400000D01*
X118600000Y-116400000D02*
X116300000Y-114100000D01*
%TO.N,TOUT*%
X112240000Y-126900000D02*
X120000000Y-126900000D01*
X120000000Y-126900000D02*
X130500000Y-116400000D01*
%TO.N,GND*%
X109700000Y-126900000D02*
X109700000Y-120700000D01*
X109700000Y-120700000D02*
X116300000Y-114100000D01*
X97060000Y-117600000D02*
X106360000Y-126900000D01*
X106360000Y-126900000D02*
X109700000Y-126900000D01*
X84560000Y-107100000D02*
X95060000Y-117600000D01*
X95060000Y-117600000D02*
X97060000Y-117600000D01*
X73100000Y-96500000D02*
X73100000Y-99350000D01*
X73100000Y-99350000D02*
X80850000Y-107100000D01*
X80850000Y-107100000D02*
X84560000Y-107100000D01*
X68600000Y-82600000D02*
X68600000Y-92000000D01*
X68600000Y-92000000D02*
X73100000Y-96500000D01*
X68960000Y-70500000D02*
X68960000Y-82240000D01*
X68960000Y-82240000D02*
X68600000Y-82600000D01*
X81750000Y-59250000D02*
X76500000Y-59250000D01*
X76500000Y-59250000D02*
X68960000Y-66790000D01*
X68960000Y-66790000D02*
X68960000Y-70500000D01*
%TO.N,Net-(U1-VCC)*%
X92400000Y-83500000D02*
X92400000Y-93150000D01*
X92400000Y-93150000D02*
X101500000Y-102250000D01*
X101500000Y-104800000D02*
X103300000Y-106600000D01*
X101500000Y-102250000D02*
X101500000Y-104800000D01*
%TO.N,Net-(U1-DISCH)*%
X130774999Y-95460000D02*
X129800000Y-95460000D01*
%TD*%
M02*
