%TF.GenerationSoftware,KiCad,Pcbnew,9.0.7*%
%TF.CreationDate,2026-03-26T11:46:43-04:00*%
%TF.ProjectId,heartpcb,68656172-7470-4636-922e-6b696361645f,rev?*%
%TF.SameCoordinates,Original*%
%TF.FileFunction,Legend,Top*%
%TF.FilePolarity,Positive*%
%FSLAX46Y46*%
G04 Gerber Fmt 4.6, Leading zero omitted, Abs format (unit mm)*
G04 Created by KiCad (PCBNEW 9.0.7) date 2026-03-26 11:46:43*
%MOMM*%
%LPD*%
G01*
G04 APERTURE LIST*
%ADD10C,0.150000*%
%ADD11C,0.120000*%
G04 APERTURE END LIST*
D10*
X82281905Y-55744819D02*
X82281905Y-54744819D01*
X82281905Y-54744819D02*
X82520000Y-54744819D01*
X82520000Y-54744819D02*
X82662857Y-54792438D01*
X82662857Y-54792438D02*
X82758095Y-54887676D01*
X82758095Y-54887676D02*
X82805714Y-54982914D01*
X82805714Y-54982914D02*
X82853333Y-55173390D01*
X82853333Y-55173390D02*
X82853333Y-55316247D01*
X82853333Y-55316247D02*
X82805714Y-55506723D01*
X82805714Y-55506723D02*
X82758095Y-55601961D01*
X82758095Y-55601961D02*
X82662857Y-55697200D01*
X82662857Y-55697200D02*
X82520000Y-55744819D01*
X82520000Y-55744819D02*
X82281905Y-55744819D01*
X83186667Y-54744819D02*
X83853333Y-54744819D01*
X83853333Y-54744819D02*
X83424762Y-55744819D01*
X128015714Y-112894819D02*
X128015714Y-111894819D01*
X128015714Y-111894819D02*
X128253809Y-111894819D01*
X128253809Y-111894819D02*
X128396666Y-111942438D01*
X128396666Y-111942438D02*
X128491904Y-112037676D01*
X128491904Y-112037676D02*
X128539523Y-112132914D01*
X128539523Y-112132914D02*
X128587142Y-112323390D01*
X128587142Y-112323390D02*
X128587142Y-112466247D01*
X128587142Y-112466247D02*
X128539523Y-112656723D01*
X128539523Y-112656723D02*
X128491904Y-112751961D01*
X128491904Y-112751961D02*
X128396666Y-112847200D01*
X128396666Y-112847200D02*
X128253809Y-112894819D01*
X128253809Y-112894819D02*
X128015714Y-112894819D01*
X129539523Y-112894819D02*
X128968095Y-112894819D01*
X129253809Y-112894819D02*
X129253809Y-111894819D01*
X129253809Y-111894819D02*
X129158571Y-112037676D01*
X129158571Y-112037676D02*
X129063333Y-112132914D01*
X129063333Y-112132914D02*
X128968095Y-112180533D01*
X130396666Y-111894819D02*
X130206190Y-111894819D01*
X130206190Y-111894819D02*
X130110952Y-111942438D01*
X130110952Y-111942438D02*
X130063333Y-111990057D01*
X130063333Y-111990057D02*
X129968095Y-112132914D01*
X129968095Y-112132914D02*
X129920476Y-112323390D01*
X129920476Y-112323390D02*
X129920476Y-112704342D01*
X129920476Y-112704342D02*
X129968095Y-112799580D01*
X129968095Y-112799580D02*
X130015714Y-112847200D01*
X130015714Y-112847200D02*
X130110952Y-112894819D01*
X130110952Y-112894819D02*
X130301428Y-112894819D01*
X130301428Y-112894819D02*
X130396666Y-112847200D01*
X130396666Y-112847200D02*
X130444285Y-112799580D01*
X130444285Y-112799580D02*
X130491904Y-112704342D01*
X130491904Y-112704342D02*
X130491904Y-112466247D01*
X130491904Y-112466247D02*
X130444285Y-112371009D01*
X130444285Y-112371009D02*
X130396666Y-112323390D01*
X130396666Y-112323390D02*
X130301428Y-112275771D01*
X130301428Y-112275771D02*
X130110952Y-112275771D01*
X130110952Y-112275771D02*
X130015714Y-112323390D01*
X130015714Y-112323390D02*
X129968095Y-112371009D01*
X129968095Y-112371009D02*
X129920476Y-112466247D01*
X98391905Y-60194819D02*
X98391905Y-59194819D01*
X98391905Y-59194819D02*
X98630000Y-59194819D01*
X98630000Y-59194819D02*
X98772857Y-59242438D01*
X98772857Y-59242438D02*
X98868095Y-59337676D01*
X98868095Y-59337676D02*
X98915714Y-59432914D01*
X98915714Y-59432914D02*
X98963333Y-59623390D01*
X98963333Y-59623390D02*
X98963333Y-59766247D01*
X98963333Y-59766247D02*
X98915714Y-59956723D01*
X98915714Y-59956723D02*
X98868095Y-60051961D01*
X98868095Y-60051961D02*
X98772857Y-60147200D01*
X98772857Y-60147200D02*
X98630000Y-60194819D01*
X98630000Y-60194819D02*
X98391905Y-60194819D01*
X99534762Y-59623390D02*
X99439524Y-59575771D01*
X99439524Y-59575771D02*
X99391905Y-59528152D01*
X99391905Y-59528152D02*
X99344286Y-59432914D01*
X99344286Y-59432914D02*
X99344286Y-59385295D01*
X99344286Y-59385295D02*
X99391905Y-59290057D01*
X99391905Y-59290057D02*
X99439524Y-59242438D01*
X99439524Y-59242438D02*
X99534762Y-59194819D01*
X99534762Y-59194819D02*
X99725238Y-59194819D01*
X99725238Y-59194819D02*
X99820476Y-59242438D01*
X99820476Y-59242438D02*
X99868095Y-59290057D01*
X99868095Y-59290057D02*
X99915714Y-59385295D01*
X99915714Y-59385295D02*
X99915714Y-59432914D01*
X99915714Y-59432914D02*
X99868095Y-59528152D01*
X99868095Y-59528152D02*
X99820476Y-59575771D01*
X99820476Y-59575771D02*
X99725238Y-59623390D01*
X99725238Y-59623390D02*
X99534762Y-59623390D01*
X99534762Y-59623390D02*
X99439524Y-59671009D01*
X99439524Y-59671009D02*
X99391905Y-59718628D01*
X99391905Y-59718628D02*
X99344286Y-59813866D01*
X99344286Y-59813866D02*
X99344286Y-60004342D01*
X99344286Y-60004342D02*
X99391905Y-60099580D01*
X99391905Y-60099580D02*
X99439524Y-60147200D01*
X99439524Y-60147200D02*
X99534762Y-60194819D01*
X99534762Y-60194819D02*
X99725238Y-60194819D01*
X99725238Y-60194819D02*
X99820476Y-60147200D01*
X99820476Y-60147200D02*
X99868095Y-60099580D01*
X99868095Y-60099580D02*
X99915714Y-60004342D01*
X99915714Y-60004342D02*
X99915714Y-59813866D01*
X99915714Y-59813866D02*
X99868095Y-59718628D01*
X99868095Y-59718628D02*
X99820476Y-59671009D01*
X99820476Y-59671009D02*
X99725238Y-59623390D01*
X69491905Y-66994819D02*
X69491905Y-65994819D01*
X69491905Y-65994819D02*
X69730000Y-65994819D01*
X69730000Y-65994819D02*
X69872857Y-66042438D01*
X69872857Y-66042438D02*
X69968095Y-66137676D01*
X69968095Y-66137676D02*
X70015714Y-66232914D01*
X70015714Y-66232914D02*
X70063333Y-66423390D01*
X70063333Y-66423390D02*
X70063333Y-66566247D01*
X70063333Y-66566247D02*
X70015714Y-66756723D01*
X70015714Y-66756723D02*
X69968095Y-66851961D01*
X69968095Y-66851961D02*
X69872857Y-66947200D01*
X69872857Y-66947200D02*
X69730000Y-66994819D01*
X69730000Y-66994819D02*
X69491905Y-66994819D01*
X70920476Y-65994819D02*
X70730000Y-65994819D01*
X70730000Y-65994819D02*
X70634762Y-66042438D01*
X70634762Y-66042438D02*
X70587143Y-66090057D01*
X70587143Y-66090057D02*
X70491905Y-66232914D01*
X70491905Y-66232914D02*
X70444286Y-66423390D01*
X70444286Y-66423390D02*
X70444286Y-66804342D01*
X70444286Y-66804342D02*
X70491905Y-66899580D01*
X70491905Y-66899580D02*
X70539524Y-66947200D01*
X70539524Y-66947200D02*
X70634762Y-66994819D01*
X70634762Y-66994819D02*
X70825238Y-66994819D01*
X70825238Y-66994819D02*
X70920476Y-66947200D01*
X70920476Y-66947200D02*
X70968095Y-66899580D01*
X70968095Y-66899580D02*
X71015714Y-66804342D01*
X71015714Y-66804342D02*
X71015714Y-66566247D01*
X71015714Y-66566247D02*
X70968095Y-66471009D01*
X70968095Y-66471009D02*
X70920476Y-66423390D01*
X70920476Y-66423390D02*
X70825238Y-66375771D01*
X70825238Y-66375771D02*
X70634762Y-66375771D01*
X70634762Y-66375771D02*
X70539524Y-66423390D01*
X70539524Y-66423390D02*
X70491905Y-66471009D01*
X70491905Y-66471009D02*
X70444286Y-66566247D01*
X69131905Y-79094819D02*
X69131905Y-78094819D01*
X69131905Y-78094819D02*
X69370000Y-78094819D01*
X69370000Y-78094819D02*
X69512857Y-78142438D01*
X69512857Y-78142438D02*
X69608095Y-78237676D01*
X69608095Y-78237676D02*
X69655714Y-78332914D01*
X69655714Y-78332914D02*
X69703333Y-78523390D01*
X69703333Y-78523390D02*
X69703333Y-78666247D01*
X69703333Y-78666247D02*
X69655714Y-78856723D01*
X69655714Y-78856723D02*
X69608095Y-78951961D01*
X69608095Y-78951961D02*
X69512857Y-79047200D01*
X69512857Y-79047200D02*
X69370000Y-79094819D01*
X69370000Y-79094819D02*
X69131905Y-79094819D01*
X70608095Y-78094819D02*
X70131905Y-78094819D01*
X70131905Y-78094819D02*
X70084286Y-78571009D01*
X70084286Y-78571009D02*
X70131905Y-78523390D01*
X70131905Y-78523390D02*
X70227143Y-78475771D01*
X70227143Y-78475771D02*
X70465238Y-78475771D01*
X70465238Y-78475771D02*
X70560476Y-78523390D01*
X70560476Y-78523390D02*
X70608095Y-78571009D01*
X70608095Y-78571009D02*
X70655714Y-78666247D01*
X70655714Y-78666247D02*
X70655714Y-78904342D01*
X70655714Y-78904342D02*
X70608095Y-78999580D01*
X70608095Y-78999580D02*
X70560476Y-79047200D01*
X70560476Y-79047200D02*
X70465238Y-79094819D01*
X70465238Y-79094819D02*
X70227143Y-79094819D01*
X70227143Y-79094819D02*
X70131905Y-79047200D01*
X70131905Y-79047200D02*
X70084286Y-78999580D01*
X105216667Y-100507200D02*
X105359524Y-100554819D01*
X105359524Y-100554819D02*
X105597619Y-100554819D01*
X105597619Y-100554819D02*
X105692857Y-100507200D01*
X105692857Y-100507200D02*
X105740476Y-100459580D01*
X105740476Y-100459580D02*
X105788095Y-100364342D01*
X105788095Y-100364342D02*
X105788095Y-100269104D01*
X105788095Y-100269104D02*
X105740476Y-100173866D01*
X105740476Y-100173866D02*
X105692857Y-100126247D01*
X105692857Y-100126247D02*
X105597619Y-100078628D01*
X105597619Y-100078628D02*
X105407143Y-100031009D01*
X105407143Y-100031009D02*
X105311905Y-99983390D01*
X105311905Y-99983390D02*
X105264286Y-99935771D01*
X105264286Y-99935771D02*
X105216667Y-99840533D01*
X105216667Y-99840533D02*
X105216667Y-99745295D01*
X105216667Y-99745295D02*
X105264286Y-99650057D01*
X105264286Y-99650057D02*
X105311905Y-99602438D01*
X105311905Y-99602438D02*
X105407143Y-99554819D01*
X105407143Y-99554819D02*
X105645238Y-99554819D01*
X105645238Y-99554819D02*
X105788095Y-99602438D01*
X106121429Y-99554819D02*
X106359524Y-100554819D01*
X106359524Y-100554819D02*
X106550000Y-99840533D01*
X106550000Y-99840533D02*
X106740476Y-100554819D01*
X106740476Y-100554819D02*
X106978572Y-99554819D01*
X107883333Y-100554819D02*
X107311905Y-100554819D01*
X107597619Y-100554819D02*
X107597619Y-99554819D01*
X107597619Y-99554819D02*
X107502381Y-99697676D01*
X107502381Y-99697676D02*
X107407143Y-99792914D01*
X107407143Y-99792914D02*
X107311905Y-99840533D01*
X89678333Y-77939819D02*
X89345000Y-77463628D01*
X89106905Y-77939819D02*
X89106905Y-76939819D01*
X89106905Y-76939819D02*
X89487857Y-76939819D01*
X89487857Y-76939819D02*
X89583095Y-76987438D01*
X89583095Y-76987438D02*
X89630714Y-77035057D01*
X89630714Y-77035057D02*
X89678333Y-77130295D01*
X89678333Y-77130295D02*
X89678333Y-77273152D01*
X89678333Y-77273152D02*
X89630714Y-77368390D01*
X89630714Y-77368390D02*
X89583095Y-77416009D01*
X89583095Y-77416009D02*
X89487857Y-77463628D01*
X89487857Y-77463628D02*
X89106905Y-77463628D01*
X90011667Y-76939819D02*
X90630714Y-76939819D01*
X90630714Y-76939819D02*
X90297381Y-77320771D01*
X90297381Y-77320771D02*
X90440238Y-77320771D01*
X90440238Y-77320771D02*
X90535476Y-77368390D01*
X90535476Y-77368390D02*
X90583095Y-77416009D01*
X90583095Y-77416009D02*
X90630714Y-77511247D01*
X90630714Y-77511247D02*
X90630714Y-77749342D01*
X90630714Y-77749342D02*
X90583095Y-77844580D01*
X90583095Y-77844580D02*
X90535476Y-77892200D01*
X90535476Y-77892200D02*
X90440238Y-77939819D01*
X90440238Y-77939819D02*
X90154524Y-77939819D01*
X90154524Y-77939819D02*
X90059286Y-77892200D01*
X90059286Y-77892200D02*
X90011667Y-77844580D01*
X103334819Y-83416666D02*
X102858628Y-83749999D01*
X103334819Y-83988094D02*
X102334819Y-83988094D01*
X102334819Y-83988094D02*
X102334819Y-83607142D01*
X102334819Y-83607142D02*
X102382438Y-83511904D01*
X102382438Y-83511904D02*
X102430057Y-83464285D01*
X102430057Y-83464285D02*
X102525295Y-83416666D01*
X102525295Y-83416666D02*
X102668152Y-83416666D01*
X102668152Y-83416666D02*
X102763390Y-83464285D01*
X102763390Y-83464285D02*
X102811009Y-83511904D01*
X102811009Y-83511904D02*
X102858628Y-83607142D01*
X102858628Y-83607142D02*
X102858628Y-83988094D01*
X102430057Y-83035713D02*
X102382438Y-82988094D01*
X102382438Y-82988094D02*
X102334819Y-82892856D01*
X102334819Y-82892856D02*
X102334819Y-82654761D01*
X102334819Y-82654761D02*
X102382438Y-82559523D01*
X102382438Y-82559523D02*
X102430057Y-82511904D01*
X102430057Y-82511904D02*
X102525295Y-82464285D01*
X102525295Y-82464285D02*
X102620533Y-82464285D01*
X102620533Y-82464285D02*
X102763390Y-82511904D01*
X102763390Y-82511904D02*
X103334819Y-83083332D01*
X103334819Y-83083332D02*
X103334819Y-82464285D01*
X96584819Y-83766666D02*
X96108628Y-84099999D01*
X96584819Y-84338094D02*
X95584819Y-84338094D01*
X95584819Y-84338094D02*
X95584819Y-83957142D01*
X95584819Y-83957142D02*
X95632438Y-83861904D01*
X95632438Y-83861904D02*
X95680057Y-83814285D01*
X95680057Y-83814285D02*
X95775295Y-83766666D01*
X95775295Y-83766666D02*
X95918152Y-83766666D01*
X95918152Y-83766666D02*
X96013390Y-83814285D01*
X96013390Y-83814285D02*
X96061009Y-83861904D01*
X96061009Y-83861904D02*
X96108628Y-83957142D01*
X96108628Y-83957142D02*
X96108628Y-84338094D01*
X96584819Y-82814285D02*
X96584819Y-83385713D01*
X96584819Y-83099999D02*
X95584819Y-83099999D01*
X95584819Y-83099999D02*
X95727676Y-83195237D01*
X95727676Y-83195237D02*
X95822914Y-83290475D01*
X95822914Y-83290475D02*
X95870533Y-83385713D01*
X143115714Y-97594819D02*
X143115714Y-96594819D01*
X143115714Y-96594819D02*
X143353809Y-96594819D01*
X143353809Y-96594819D02*
X143496666Y-96642438D01*
X143496666Y-96642438D02*
X143591904Y-96737676D01*
X143591904Y-96737676D02*
X143639523Y-96832914D01*
X143639523Y-96832914D02*
X143687142Y-97023390D01*
X143687142Y-97023390D02*
X143687142Y-97166247D01*
X143687142Y-97166247D02*
X143639523Y-97356723D01*
X143639523Y-97356723D02*
X143591904Y-97451961D01*
X143591904Y-97451961D02*
X143496666Y-97547200D01*
X143496666Y-97547200D02*
X143353809Y-97594819D01*
X143353809Y-97594819D02*
X143115714Y-97594819D01*
X144639523Y-97594819D02*
X144068095Y-97594819D01*
X144353809Y-97594819D02*
X144353809Y-96594819D01*
X144353809Y-96594819D02*
X144258571Y-96737676D01*
X144258571Y-96737676D02*
X144163333Y-96832914D01*
X144163333Y-96832914D02*
X144068095Y-96880533D01*
X145544285Y-96594819D02*
X145068095Y-96594819D01*
X145068095Y-96594819D02*
X145020476Y-97071009D01*
X145020476Y-97071009D02*
X145068095Y-97023390D01*
X145068095Y-97023390D02*
X145163333Y-96975771D01*
X145163333Y-96975771D02*
X145401428Y-96975771D01*
X145401428Y-96975771D02*
X145496666Y-97023390D01*
X145496666Y-97023390D02*
X145544285Y-97071009D01*
X145544285Y-97071009D02*
X145591904Y-97166247D01*
X145591904Y-97166247D02*
X145591904Y-97404342D01*
X145591904Y-97404342D02*
X145544285Y-97499580D01*
X145544285Y-97499580D02*
X145496666Y-97547200D01*
X145496666Y-97547200D02*
X145401428Y-97594819D01*
X145401428Y-97594819D02*
X145163333Y-97594819D01*
X145163333Y-97594819D02*
X145068095Y-97547200D01*
X145068095Y-97547200D02*
X145020476Y-97499580D01*
X154215714Y-83794819D02*
X154215714Y-82794819D01*
X154215714Y-82794819D02*
X154453809Y-82794819D01*
X154453809Y-82794819D02*
X154596666Y-82842438D01*
X154596666Y-82842438D02*
X154691904Y-82937676D01*
X154691904Y-82937676D02*
X154739523Y-83032914D01*
X154739523Y-83032914D02*
X154787142Y-83223390D01*
X154787142Y-83223390D02*
X154787142Y-83366247D01*
X154787142Y-83366247D02*
X154739523Y-83556723D01*
X154739523Y-83556723D02*
X154691904Y-83651961D01*
X154691904Y-83651961D02*
X154596666Y-83747200D01*
X154596666Y-83747200D02*
X154453809Y-83794819D01*
X154453809Y-83794819D02*
X154215714Y-83794819D01*
X155739523Y-83794819D02*
X155168095Y-83794819D01*
X155453809Y-83794819D02*
X155453809Y-82794819D01*
X155453809Y-82794819D02*
X155358571Y-82937676D01*
X155358571Y-82937676D02*
X155263333Y-83032914D01*
X155263333Y-83032914D02*
X155168095Y-83080533D01*
X156596666Y-83128152D02*
X156596666Y-83794819D01*
X156358571Y-82747200D02*
X156120476Y-83461485D01*
X156120476Y-83461485D02*
X156739523Y-83461485D01*
X151815714Y-70294819D02*
X151815714Y-69294819D01*
X151815714Y-69294819D02*
X152053809Y-69294819D01*
X152053809Y-69294819D02*
X152196666Y-69342438D01*
X152196666Y-69342438D02*
X152291904Y-69437676D01*
X152291904Y-69437676D02*
X152339523Y-69532914D01*
X152339523Y-69532914D02*
X152387142Y-69723390D01*
X152387142Y-69723390D02*
X152387142Y-69866247D01*
X152387142Y-69866247D02*
X152339523Y-70056723D01*
X152339523Y-70056723D02*
X152291904Y-70151961D01*
X152291904Y-70151961D02*
X152196666Y-70247200D01*
X152196666Y-70247200D02*
X152053809Y-70294819D01*
X152053809Y-70294819D02*
X151815714Y-70294819D01*
X153339523Y-70294819D02*
X152768095Y-70294819D01*
X153053809Y-70294819D02*
X153053809Y-69294819D01*
X153053809Y-69294819D02*
X152958571Y-69437676D01*
X152958571Y-69437676D02*
X152863333Y-69532914D01*
X152863333Y-69532914D02*
X152768095Y-69580533D01*
X153672857Y-69294819D02*
X154291904Y-69294819D01*
X154291904Y-69294819D02*
X153958571Y-69675771D01*
X153958571Y-69675771D02*
X154101428Y-69675771D01*
X154101428Y-69675771D02*
X154196666Y-69723390D01*
X154196666Y-69723390D02*
X154244285Y-69771009D01*
X154244285Y-69771009D02*
X154291904Y-69866247D01*
X154291904Y-69866247D02*
X154291904Y-70104342D01*
X154291904Y-70104342D02*
X154244285Y-70199580D01*
X154244285Y-70199580D02*
X154196666Y-70247200D01*
X154196666Y-70247200D02*
X154101428Y-70294819D01*
X154101428Y-70294819D02*
X153815714Y-70294819D01*
X153815714Y-70294819D02*
X153720476Y-70247200D01*
X153720476Y-70247200D02*
X153672857Y-70199580D01*
X144115714Y-59794819D02*
X144115714Y-58794819D01*
X144115714Y-58794819D02*
X144353809Y-58794819D01*
X144353809Y-58794819D02*
X144496666Y-58842438D01*
X144496666Y-58842438D02*
X144591904Y-58937676D01*
X144591904Y-58937676D02*
X144639523Y-59032914D01*
X144639523Y-59032914D02*
X144687142Y-59223390D01*
X144687142Y-59223390D02*
X144687142Y-59366247D01*
X144687142Y-59366247D02*
X144639523Y-59556723D01*
X144639523Y-59556723D02*
X144591904Y-59651961D01*
X144591904Y-59651961D02*
X144496666Y-59747200D01*
X144496666Y-59747200D02*
X144353809Y-59794819D01*
X144353809Y-59794819D02*
X144115714Y-59794819D01*
X145639523Y-59794819D02*
X145068095Y-59794819D01*
X145353809Y-59794819D02*
X145353809Y-58794819D01*
X145353809Y-58794819D02*
X145258571Y-58937676D01*
X145258571Y-58937676D02*
X145163333Y-59032914D01*
X145163333Y-59032914D02*
X145068095Y-59080533D01*
X146020476Y-58890057D02*
X146068095Y-58842438D01*
X146068095Y-58842438D02*
X146163333Y-58794819D01*
X146163333Y-58794819D02*
X146401428Y-58794819D01*
X146401428Y-58794819D02*
X146496666Y-58842438D01*
X146496666Y-58842438D02*
X146544285Y-58890057D01*
X146544285Y-58890057D02*
X146591904Y-58985295D01*
X146591904Y-58985295D02*
X146591904Y-59080533D01*
X146591904Y-59080533D02*
X146544285Y-59223390D01*
X146544285Y-59223390D02*
X145972857Y-59794819D01*
X145972857Y-59794819D02*
X146591904Y-59794819D01*
X132715714Y-54594819D02*
X132715714Y-53594819D01*
X132715714Y-53594819D02*
X132953809Y-53594819D01*
X132953809Y-53594819D02*
X133096666Y-53642438D01*
X133096666Y-53642438D02*
X133191904Y-53737676D01*
X133191904Y-53737676D02*
X133239523Y-53832914D01*
X133239523Y-53832914D02*
X133287142Y-54023390D01*
X133287142Y-54023390D02*
X133287142Y-54166247D01*
X133287142Y-54166247D02*
X133239523Y-54356723D01*
X133239523Y-54356723D02*
X133191904Y-54451961D01*
X133191904Y-54451961D02*
X133096666Y-54547200D01*
X133096666Y-54547200D02*
X132953809Y-54594819D01*
X132953809Y-54594819D02*
X132715714Y-54594819D01*
X134239523Y-54594819D02*
X133668095Y-54594819D01*
X133953809Y-54594819D02*
X133953809Y-53594819D01*
X133953809Y-53594819D02*
X133858571Y-53737676D01*
X133858571Y-53737676D02*
X133763333Y-53832914D01*
X133763333Y-53832914D02*
X133668095Y-53880533D01*
X135191904Y-54594819D02*
X134620476Y-54594819D01*
X134906190Y-54594819D02*
X134906190Y-53594819D01*
X134906190Y-53594819D02*
X134810952Y-53737676D01*
X134810952Y-53737676D02*
X134715714Y-53832914D01*
X134715714Y-53832914D02*
X134620476Y-53880533D01*
X121815714Y-60294819D02*
X121815714Y-59294819D01*
X121815714Y-59294819D02*
X122053809Y-59294819D01*
X122053809Y-59294819D02*
X122196666Y-59342438D01*
X122196666Y-59342438D02*
X122291904Y-59437676D01*
X122291904Y-59437676D02*
X122339523Y-59532914D01*
X122339523Y-59532914D02*
X122387142Y-59723390D01*
X122387142Y-59723390D02*
X122387142Y-59866247D01*
X122387142Y-59866247D02*
X122339523Y-60056723D01*
X122339523Y-60056723D02*
X122291904Y-60151961D01*
X122291904Y-60151961D02*
X122196666Y-60247200D01*
X122196666Y-60247200D02*
X122053809Y-60294819D01*
X122053809Y-60294819D02*
X121815714Y-60294819D01*
X123339523Y-60294819D02*
X122768095Y-60294819D01*
X123053809Y-60294819D02*
X123053809Y-59294819D01*
X123053809Y-59294819D02*
X122958571Y-59437676D01*
X122958571Y-59437676D02*
X122863333Y-59532914D01*
X122863333Y-59532914D02*
X122768095Y-59580533D01*
X123958571Y-59294819D02*
X124053809Y-59294819D01*
X124053809Y-59294819D02*
X124149047Y-59342438D01*
X124149047Y-59342438D02*
X124196666Y-59390057D01*
X124196666Y-59390057D02*
X124244285Y-59485295D01*
X124244285Y-59485295D02*
X124291904Y-59675771D01*
X124291904Y-59675771D02*
X124291904Y-59913866D01*
X124291904Y-59913866D02*
X124244285Y-60104342D01*
X124244285Y-60104342D02*
X124196666Y-60199580D01*
X124196666Y-60199580D02*
X124149047Y-60247200D01*
X124149047Y-60247200D02*
X124053809Y-60294819D01*
X124053809Y-60294819D02*
X123958571Y-60294819D01*
X123958571Y-60294819D02*
X123863333Y-60247200D01*
X123863333Y-60247200D02*
X123815714Y-60199580D01*
X123815714Y-60199580D02*
X123768095Y-60104342D01*
X123768095Y-60104342D02*
X123720476Y-59913866D01*
X123720476Y-59913866D02*
X123720476Y-59675771D01*
X123720476Y-59675771D02*
X123768095Y-59485295D01*
X123768095Y-59485295D02*
X123815714Y-59390057D01*
X123815714Y-59390057D02*
X123863333Y-59342438D01*
X123863333Y-59342438D02*
X123958571Y-59294819D01*
X111491905Y-70294819D02*
X111491905Y-69294819D01*
X111491905Y-69294819D02*
X111730000Y-69294819D01*
X111730000Y-69294819D02*
X111872857Y-69342438D01*
X111872857Y-69342438D02*
X111968095Y-69437676D01*
X111968095Y-69437676D02*
X112015714Y-69532914D01*
X112015714Y-69532914D02*
X112063333Y-69723390D01*
X112063333Y-69723390D02*
X112063333Y-69866247D01*
X112063333Y-69866247D02*
X112015714Y-70056723D01*
X112015714Y-70056723D02*
X111968095Y-70151961D01*
X111968095Y-70151961D02*
X111872857Y-70247200D01*
X111872857Y-70247200D02*
X111730000Y-70294819D01*
X111730000Y-70294819D02*
X111491905Y-70294819D01*
X112539524Y-70294819D02*
X112730000Y-70294819D01*
X112730000Y-70294819D02*
X112825238Y-70247200D01*
X112825238Y-70247200D02*
X112872857Y-70199580D01*
X112872857Y-70199580D02*
X112968095Y-70056723D01*
X112968095Y-70056723D02*
X113015714Y-69866247D01*
X113015714Y-69866247D02*
X113015714Y-69485295D01*
X113015714Y-69485295D02*
X112968095Y-69390057D01*
X112968095Y-69390057D02*
X112920476Y-69342438D01*
X112920476Y-69342438D02*
X112825238Y-69294819D01*
X112825238Y-69294819D02*
X112634762Y-69294819D01*
X112634762Y-69294819D02*
X112539524Y-69342438D01*
X112539524Y-69342438D02*
X112491905Y-69390057D01*
X112491905Y-69390057D02*
X112444286Y-69485295D01*
X112444286Y-69485295D02*
X112444286Y-69723390D01*
X112444286Y-69723390D02*
X112491905Y-69818628D01*
X112491905Y-69818628D02*
X112539524Y-69866247D01*
X112539524Y-69866247D02*
X112634762Y-69913866D01*
X112634762Y-69913866D02*
X112825238Y-69913866D01*
X112825238Y-69913866D02*
X112920476Y-69866247D01*
X112920476Y-69866247D02*
X112968095Y-69818628D01*
X112968095Y-69818628D02*
X113015714Y-69723390D01*
X73631905Y-92994819D02*
X73631905Y-91994819D01*
X73631905Y-91994819D02*
X73870000Y-91994819D01*
X73870000Y-91994819D02*
X74012857Y-92042438D01*
X74012857Y-92042438D02*
X74108095Y-92137676D01*
X74108095Y-92137676D02*
X74155714Y-92232914D01*
X74155714Y-92232914D02*
X74203333Y-92423390D01*
X74203333Y-92423390D02*
X74203333Y-92566247D01*
X74203333Y-92566247D02*
X74155714Y-92756723D01*
X74155714Y-92756723D02*
X74108095Y-92851961D01*
X74108095Y-92851961D02*
X74012857Y-92947200D01*
X74012857Y-92947200D02*
X73870000Y-92994819D01*
X73870000Y-92994819D02*
X73631905Y-92994819D01*
X75060476Y-92328152D02*
X75060476Y-92994819D01*
X74822381Y-91947200D02*
X74584286Y-92661485D01*
X74584286Y-92661485D02*
X75203333Y-92661485D01*
X85091905Y-103594819D02*
X85091905Y-102594819D01*
X85091905Y-102594819D02*
X85330000Y-102594819D01*
X85330000Y-102594819D02*
X85472857Y-102642438D01*
X85472857Y-102642438D02*
X85568095Y-102737676D01*
X85568095Y-102737676D02*
X85615714Y-102832914D01*
X85615714Y-102832914D02*
X85663333Y-103023390D01*
X85663333Y-103023390D02*
X85663333Y-103166247D01*
X85663333Y-103166247D02*
X85615714Y-103356723D01*
X85615714Y-103356723D02*
X85568095Y-103451961D01*
X85568095Y-103451961D02*
X85472857Y-103547200D01*
X85472857Y-103547200D02*
X85330000Y-103594819D01*
X85330000Y-103594819D02*
X85091905Y-103594819D01*
X85996667Y-102594819D02*
X86615714Y-102594819D01*
X86615714Y-102594819D02*
X86282381Y-102975771D01*
X86282381Y-102975771D02*
X86425238Y-102975771D01*
X86425238Y-102975771D02*
X86520476Y-103023390D01*
X86520476Y-103023390D02*
X86568095Y-103071009D01*
X86568095Y-103071009D02*
X86615714Y-103166247D01*
X86615714Y-103166247D02*
X86615714Y-103404342D01*
X86615714Y-103404342D02*
X86568095Y-103499580D01*
X86568095Y-103499580D02*
X86520476Y-103547200D01*
X86520476Y-103547200D02*
X86425238Y-103594819D01*
X86425238Y-103594819D02*
X86139524Y-103594819D01*
X86139524Y-103594819D02*
X86044286Y-103547200D01*
X86044286Y-103547200D02*
X85996667Y-103499580D01*
X97591905Y-114094819D02*
X97591905Y-113094819D01*
X97591905Y-113094819D02*
X97830000Y-113094819D01*
X97830000Y-113094819D02*
X97972857Y-113142438D01*
X97972857Y-113142438D02*
X98068095Y-113237676D01*
X98068095Y-113237676D02*
X98115714Y-113332914D01*
X98115714Y-113332914D02*
X98163333Y-113523390D01*
X98163333Y-113523390D02*
X98163333Y-113666247D01*
X98163333Y-113666247D02*
X98115714Y-113856723D01*
X98115714Y-113856723D02*
X98068095Y-113951961D01*
X98068095Y-113951961D02*
X97972857Y-114047200D01*
X97972857Y-114047200D02*
X97830000Y-114094819D01*
X97830000Y-114094819D02*
X97591905Y-114094819D01*
X98544286Y-113190057D02*
X98591905Y-113142438D01*
X98591905Y-113142438D02*
X98687143Y-113094819D01*
X98687143Y-113094819D02*
X98925238Y-113094819D01*
X98925238Y-113094819D02*
X99020476Y-113142438D01*
X99020476Y-113142438D02*
X99068095Y-113190057D01*
X99068095Y-113190057D02*
X99115714Y-113285295D01*
X99115714Y-113285295D02*
X99115714Y-113380533D01*
X99115714Y-113380533D02*
X99068095Y-113523390D01*
X99068095Y-113523390D02*
X98496667Y-114094819D01*
X98496667Y-114094819D02*
X99115714Y-114094819D01*
X110231905Y-123394819D02*
X110231905Y-122394819D01*
X110231905Y-122394819D02*
X110470000Y-122394819D01*
X110470000Y-122394819D02*
X110612857Y-122442438D01*
X110612857Y-122442438D02*
X110708095Y-122537676D01*
X110708095Y-122537676D02*
X110755714Y-122632914D01*
X110755714Y-122632914D02*
X110803333Y-122823390D01*
X110803333Y-122823390D02*
X110803333Y-122966247D01*
X110803333Y-122966247D02*
X110755714Y-123156723D01*
X110755714Y-123156723D02*
X110708095Y-123251961D01*
X110708095Y-123251961D02*
X110612857Y-123347200D01*
X110612857Y-123347200D02*
X110470000Y-123394819D01*
X110470000Y-123394819D02*
X110231905Y-123394819D01*
X111755714Y-123394819D02*
X111184286Y-123394819D01*
X111470000Y-123394819D02*
X111470000Y-122394819D01*
X111470000Y-122394819D02*
X111374762Y-122537676D01*
X111374762Y-122537676D02*
X111279524Y-122632914D01*
X111279524Y-122632914D02*
X111184286Y-122680533D01*
X132383333Y-75209580D02*
X132335714Y-75257200D01*
X132335714Y-75257200D02*
X132192857Y-75304819D01*
X132192857Y-75304819D02*
X132097619Y-75304819D01*
X132097619Y-75304819D02*
X131954762Y-75257200D01*
X131954762Y-75257200D02*
X131859524Y-75161961D01*
X131859524Y-75161961D02*
X131811905Y-75066723D01*
X131811905Y-75066723D02*
X131764286Y-74876247D01*
X131764286Y-74876247D02*
X131764286Y-74733390D01*
X131764286Y-74733390D02*
X131811905Y-74542914D01*
X131811905Y-74542914D02*
X131859524Y-74447676D01*
X131859524Y-74447676D02*
X131954762Y-74352438D01*
X131954762Y-74352438D02*
X132097619Y-74304819D01*
X132097619Y-74304819D02*
X132192857Y-74304819D01*
X132192857Y-74304819D02*
X132335714Y-74352438D01*
X132335714Y-74352438D02*
X132383333Y-74400057D01*
X133335714Y-75304819D02*
X132764286Y-75304819D01*
X133050000Y-75304819D02*
X133050000Y-74304819D01*
X133050000Y-74304819D02*
X132954762Y-74447676D01*
X132954762Y-74447676D02*
X132859524Y-74542914D01*
X132859524Y-74542914D02*
X132764286Y-74590533D01*
X113714285Y-112031009D02*
X113857142Y-112078628D01*
X113857142Y-112078628D02*
X113904761Y-112126247D01*
X113904761Y-112126247D02*
X113952380Y-112221485D01*
X113952380Y-112221485D02*
X113952380Y-112364342D01*
X113952380Y-112364342D02*
X113904761Y-112459580D01*
X113904761Y-112459580D02*
X113857142Y-112507200D01*
X113857142Y-112507200D02*
X113761904Y-112554819D01*
X113761904Y-112554819D02*
X113380952Y-112554819D01*
X113380952Y-112554819D02*
X113380952Y-111554819D01*
X113380952Y-111554819D02*
X113714285Y-111554819D01*
X113714285Y-111554819D02*
X113809523Y-111602438D01*
X113809523Y-111602438D02*
X113857142Y-111650057D01*
X113857142Y-111650057D02*
X113904761Y-111745295D01*
X113904761Y-111745295D02*
X113904761Y-111840533D01*
X113904761Y-111840533D02*
X113857142Y-111935771D01*
X113857142Y-111935771D02*
X113809523Y-111983390D01*
X113809523Y-111983390D02*
X113714285Y-112031009D01*
X113714285Y-112031009D02*
X113380952Y-112031009D01*
X114238095Y-111554819D02*
X114809523Y-111554819D01*
X114523809Y-112554819D02*
X114523809Y-111554819D01*
X115666666Y-112554819D02*
X115095238Y-112554819D01*
X115380952Y-112554819D02*
X115380952Y-111554819D01*
X115380952Y-111554819D02*
X115285714Y-111697676D01*
X115285714Y-111697676D02*
X115190476Y-111792914D01*
X115190476Y-111792914D02*
X115095238Y-111840533D01*
X126488095Y-95954819D02*
X126488095Y-96764342D01*
X126488095Y-96764342D02*
X126535714Y-96859580D01*
X126535714Y-96859580D02*
X126583333Y-96907200D01*
X126583333Y-96907200D02*
X126678571Y-96954819D01*
X126678571Y-96954819D02*
X126869047Y-96954819D01*
X126869047Y-96954819D02*
X126964285Y-96907200D01*
X126964285Y-96907200D02*
X127011904Y-96859580D01*
X127011904Y-96859580D02*
X127059523Y-96764342D01*
X127059523Y-96764342D02*
X127059523Y-95954819D01*
X128059523Y-96954819D02*
X127488095Y-96954819D01*
X127773809Y-96954819D02*
X127773809Y-95954819D01*
X127773809Y-95954819D02*
X127678571Y-96097676D01*
X127678571Y-96097676D02*
X127583333Y-96192914D01*
X127583333Y-96192914D02*
X127488095Y-96240533D01*
D11*
%TO.C,D7*%
X85520000Y-59250000D02*
G75*
G02*
X80520000Y-59250000I-2500000J0D01*
G01*
X80520000Y-59250000D02*
G75*
G02*
X85520000Y-59250000I2500000J0D01*
G01*
X86010000Y-59250000D02*
G75*
G02*
X80460000Y-60794830I-2990000J0D01*
G01*
X80460000Y-57705170D02*
G75*
G02*
X86010000Y-59250000I2560000J-1544830D01*
G01*
X80460000Y-57705000D02*
X80460000Y-60795000D01*
%TO.C,D16*%
X131730000Y-116400000D02*
G75*
G02*
X126730000Y-116400000I-2500000J0D01*
G01*
X126730000Y-116400000D02*
G75*
G02*
X131730000Y-116400000I2500000J0D01*
G01*
X132220000Y-116400000D02*
G75*
G02*
X126670000Y-117944830I-2990000J0D01*
G01*
X126670000Y-114855170D02*
G75*
G02*
X132220000Y-116400000I2560000J-1544830D01*
G01*
X126670000Y-114855000D02*
X126670000Y-117945000D01*
%TO.C,D8*%
X96570000Y-62155000D02*
X96570000Y-65245000D01*
X96570000Y-62155170D02*
G75*
G02*
X102120000Y-63700000I2560000J-1544830D01*
G01*
X102120000Y-63700000D02*
G75*
G02*
X96570000Y-65244830I-2990000J0D01*
G01*
X101630000Y-63700000D02*
G75*
G02*
X96630000Y-63700000I-2500000J0D01*
G01*
X96630000Y-63700000D02*
G75*
G02*
X101630000Y-63700000I2500000J0D01*
G01*
%TO.C,D6*%
X67670000Y-68955000D02*
X67670000Y-72045000D01*
X67670000Y-68955170D02*
G75*
G02*
X73220000Y-70500000I2560000J-1544830D01*
G01*
X73220000Y-70500000D02*
G75*
G02*
X67670000Y-72044830I-2990000J0D01*
G01*
X72730000Y-70500000D02*
G75*
G02*
X67730000Y-70500000I-2500000J0D01*
G01*
X67730000Y-70500000D02*
G75*
G02*
X72730000Y-70500000I2500000J0D01*
G01*
%TO.C,D5*%
X72370000Y-82600000D02*
G75*
G02*
X67370000Y-82600000I-2500000J0D01*
G01*
X67370000Y-82600000D02*
G75*
G02*
X72370000Y-82600000I2500000J0D01*
G01*
X72860000Y-82600000D02*
G75*
G02*
X67310000Y-84144830I-2990000J0D01*
G01*
X67310000Y-81055170D02*
G75*
G02*
X72860000Y-82600000I2560000J-1544830D01*
G01*
X67310000Y-81055000D02*
X67310000Y-84145000D01*
%TO.C,SW1*%
X103050000Y-103600000D02*
X103050000Y-105100000D01*
X104300000Y-107600000D02*
X108800000Y-107600000D01*
X108800000Y-101100000D02*
X104300000Y-101100000D01*
X110050000Y-105100000D02*
X110050000Y-103600000D01*
%TO.C,R3*%
X84970000Y-78625000D02*
X94720000Y-78625000D01*
X84970000Y-88375000D02*
X84970000Y-78625000D01*
X94720000Y-78625000D02*
X94720000Y-88375000D01*
X94720000Y-88375000D02*
X84970000Y-88375000D01*
%TO.C,R2*%
X103880000Y-86520000D02*
X103880000Y-79980000D01*
X104210000Y-86520000D02*
X103880000Y-86520000D01*
X106290000Y-86520000D02*
X106620000Y-86520000D01*
X106620000Y-86520000D02*
X106620000Y-79980000D01*
X103880000Y-79980000D02*
X104210000Y-79980000D01*
X106620000Y-79980000D02*
X106290000Y-79980000D01*
%TO.C,R1*%
X97130000Y-86870000D02*
X97130000Y-80330000D01*
X97460000Y-86870000D02*
X97130000Y-86870000D01*
X99540000Y-86870000D02*
X99870000Y-86870000D01*
X99870000Y-86870000D02*
X99870000Y-80330000D01*
X97130000Y-80330000D02*
X97460000Y-80330000D01*
X99870000Y-80330000D02*
X99540000Y-80330000D01*
%TO.C,D15*%
X141770000Y-99555000D02*
X141770000Y-102645000D01*
X141770000Y-99555170D02*
G75*
G02*
X147320000Y-101100000I2560000J-1544830D01*
G01*
X147320000Y-101100000D02*
G75*
G02*
X141770000Y-102644830I-2990000J0D01*
G01*
X146830000Y-101100000D02*
G75*
G02*
X141830000Y-101100000I-2500000J0D01*
G01*
X141830000Y-101100000D02*
G75*
G02*
X146830000Y-101100000I2500000J0D01*
G01*
%TO.C,D14*%
X152870000Y-85755000D02*
X152870000Y-88845000D01*
X152870000Y-85755170D02*
G75*
G02*
X158420000Y-87300000I2560000J-1544830D01*
G01*
X158420000Y-87300000D02*
G75*
G02*
X152870000Y-88844830I-2990000J0D01*
G01*
X157930000Y-87300000D02*
G75*
G02*
X152930000Y-87300000I-2500000J0D01*
G01*
X152930000Y-87300000D02*
G75*
G02*
X157930000Y-87300000I2500000J0D01*
G01*
%TO.C,D13*%
X150470000Y-72255000D02*
X150470000Y-75345000D01*
X150470000Y-72255170D02*
G75*
G02*
X156020000Y-73800000I2560000J-1544830D01*
G01*
X156020000Y-73800000D02*
G75*
G02*
X150470000Y-75344830I-2990000J0D01*
G01*
X155530000Y-73800000D02*
G75*
G02*
X150530000Y-73800000I-2500000J0D01*
G01*
X150530000Y-73800000D02*
G75*
G02*
X155530000Y-73800000I2500000J0D01*
G01*
%TO.C,D12*%
X142770000Y-61755000D02*
X142770000Y-64845000D01*
X142770000Y-61755170D02*
G75*
G02*
X148320000Y-63300000I2560000J-1544830D01*
G01*
X148320000Y-63300000D02*
G75*
G02*
X142770000Y-64844830I-2990000J0D01*
G01*
X147830000Y-63300000D02*
G75*
G02*
X142830000Y-63300000I-2500000J0D01*
G01*
X142830000Y-63300000D02*
G75*
G02*
X147830000Y-63300000I2500000J0D01*
G01*
%TO.C,D11*%
X131370000Y-56555000D02*
X131370000Y-59645000D01*
X131370000Y-56555170D02*
G75*
G02*
X136920000Y-58100000I2560000J-1544830D01*
G01*
X136920000Y-58100000D02*
G75*
G02*
X131370000Y-59644830I-2990000J0D01*
G01*
X136430000Y-58100000D02*
G75*
G02*
X131430000Y-58100000I-2500000J0D01*
G01*
X131430000Y-58100000D02*
G75*
G02*
X136430000Y-58100000I2500000J0D01*
G01*
%TO.C,D10*%
X120470000Y-62255000D02*
X120470000Y-65345000D01*
X120470000Y-62255170D02*
G75*
G02*
X126020000Y-63800000I2560000J-1544830D01*
G01*
X126020000Y-63800000D02*
G75*
G02*
X120470000Y-65344830I-2990000J0D01*
G01*
X125530000Y-63800000D02*
G75*
G02*
X120530000Y-63800000I-2500000J0D01*
G01*
X120530000Y-63800000D02*
G75*
G02*
X125530000Y-63800000I2500000J0D01*
G01*
%TO.C,D9*%
X109670000Y-72255000D02*
X109670000Y-75345000D01*
X109670000Y-72255170D02*
G75*
G02*
X115220000Y-73800000I2560000J-1544830D01*
G01*
X115220000Y-73800000D02*
G75*
G02*
X109670000Y-75344830I-2990000J0D01*
G01*
X114730000Y-73800000D02*
G75*
G02*
X109730000Y-73800000I-2500000J0D01*
G01*
X109730000Y-73800000D02*
G75*
G02*
X114730000Y-73800000I2500000J0D01*
G01*
%TO.C,D4*%
X71810000Y-94955000D02*
X71810000Y-98045000D01*
X71810000Y-94955170D02*
G75*
G02*
X77360000Y-96500000I2560000J-1544830D01*
G01*
X77360000Y-96500000D02*
G75*
G02*
X71810000Y-98044830I-2990000J0D01*
G01*
X76870000Y-96500000D02*
G75*
G02*
X71870000Y-96500000I-2500000J0D01*
G01*
X71870000Y-96500000D02*
G75*
G02*
X76870000Y-96500000I2500000J0D01*
G01*
%TO.C,D3*%
X83270000Y-105555000D02*
X83270000Y-108645000D01*
X83270000Y-105555170D02*
G75*
G02*
X88820000Y-107100000I2560000J-1544830D01*
G01*
X88820000Y-107100000D02*
G75*
G02*
X83270000Y-108644830I-2990000J0D01*
G01*
X88330000Y-107100000D02*
G75*
G02*
X83330000Y-107100000I-2500000J0D01*
G01*
X83330000Y-107100000D02*
G75*
G02*
X88330000Y-107100000I2500000J0D01*
G01*
%TO.C,D2*%
X95770000Y-116055000D02*
X95770000Y-119145000D01*
X95770000Y-116055170D02*
G75*
G02*
X101320000Y-117600000I2560000J-1544830D01*
G01*
X101320000Y-117600000D02*
G75*
G02*
X95770000Y-119144830I-2990000J0D01*
G01*
X100830000Y-117600000D02*
G75*
G02*
X95830000Y-117600000I-2500000J0D01*
G01*
X95830000Y-117600000D02*
G75*
G02*
X100830000Y-117600000I2500000J0D01*
G01*
%TO.C,D1*%
X108410000Y-125355000D02*
X108410000Y-128445000D01*
X108410000Y-125355170D02*
G75*
G02*
X113960000Y-126900000I2560000J-1544830D01*
G01*
X113960000Y-126900000D02*
G75*
G02*
X108410000Y-128444830I-2990000J0D01*
G01*
X113470000Y-126900000D02*
G75*
G02*
X108470000Y-126900000I-2500000J0D01*
G01*
X108470000Y-126900000D02*
G75*
G02*
X113470000Y-126900000I2500000J0D01*
G01*
%TO.C,C1*%
X129745225Y-77125000D02*
X130245225Y-77125000D01*
X129995225Y-76875000D02*
X129995225Y-77375000D01*
X132550000Y-76020000D02*
X132550000Y-81180000D01*
X132590000Y-76020000D02*
X132590000Y-81180000D01*
X132630000Y-76021000D02*
X132630000Y-81179000D01*
X132670000Y-76023000D02*
X132670000Y-81177000D01*
X132710000Y-76025000D02*
X132710000Y-81175000D01*
X132750000Y-76028000D02*
X132750000Y-81172000D01*
X132790000Y-76031000D02*
X132790000Y-77560000D01*
X132790000Y-79640000D02*
X132790000Y-81169000D01*
X132830000Y-76035000D02*
X132830000Y-77560000D01*
X132830000Y-79640000D02*
X132830000Y-81165000D01*
X132870000Y-76040000D02*
X132870000Y-77560000D01*
X132870000Y-79640000D02*
X132870000Y-81160000D01*
X132910000Y-76045000D02*
X132910000Y-77560000D01*
X132910000Y-79640000D02*
X132910000Y-81155000D01*
X132950000Y-76051000D02*
X132950000Y-77560000D01*
X132950000Y-79640000D02*
X132950000Y-81149000D01*
X132990000Y-76057000D02*
X132990000Y-77560000D01*
X132990000Y-79640000D02*
X132990000Y-81143000D01*
X133030000Y-76064000D02*
X133030000Y-77560000D01*
X133030000Y-79640000D02*
X133030000Y-81136000D01*
X133070000Y-76072000D02*
X133070000Y-77560000D01*
X133070000Y-79640000D02*
X133070000Y-81128000D01*
X133110000Y-76081000D02*
X133110000Y-77560000D01*
X133110000Y-79640000D02*
X133110000Y-81119000D01*
X133150000Y-76090000D02*
X133150000Y-77560000D01*
X133150000Y-79640000D02*
X133150000Y-81110000D01*
X133190000Y-76099000D02*
X133190000Y-77560000D01*
X133190000Y-79640000D02*
X133190000Y-81101000D01*
X133230000Y-76110000D02*
X133230000Y-77560000D01*
X133230000Y-79640000D02*
X133230000Y-81090000D01*
X133270000Y-76121000D02*
X133270000Y-77560000D01*
X133270000Y-79640000D02*
X133270000Y-81079000D01*
X133310000Y-76133000D02*
X133310000Y-77560000D01*
X133310000Y-79640000D02*
X133310000Y-81067000D01*
X133350000Y-76145000D02*
X133350000Y-77560000D01*
X133350000Y-79640000D02*
X133350000Y-81055000D01*
X133390000Y-76158000D02*
X133390000Y-77560000D01*
X133390000Y-79640000D02*
X133390000Y-81042000D01*
X133430000Y-76172000D02*
X133430000Y-77560000D01*
X133430000Y-79640000D02*
X133430000Y-81028000D01*
X133470000Y-76187000D02*
X133470000Y-77560000D01*
X133470000Y-79640000D02*
X133470000Y-81013000D01*
X133510000Y-76202000D02*
X133510000Y-77560000D01*
X133510000Y-79640000D02*
X133510000Y-80998000D01*
X133550000Y-76218000D02*
X133550000Y-77560000D01*
X133550000Y-79640000D02*
X133550000Y-80982000D01*
X133590000Y-76235000D02*
X133590000Y-77560000D01*
X133590000Y-79640000D02*
X133590000Y-80965000D01*
X133630000Y-76253000D02*
X133630000Y-77560000D01*
X133630000Y-79640000D02*
X133630000Y-80947000D01*
X133670000Y-76271000D02*
X133670000Y-77560000D01*
X133670000Y-79640000D02*
X133670000Y-80929000D01*
X133710000Y-76291000D02*
X133710000Y-77560000D01*
X133710000Y-79640000D02*
X133710000Y-80909000D01*
X133750000Y-76311000D02*
X133750000Y-77560000D01*
X133750000Y-79640000D02*
X133750000Y-80889000D01*
X133790000Y-76332000D02*
X133790000Y-77560000D01*
X133790000Y-79640000D02*
X133790000Y-80868000D01*
X133830000Y-76354000D02*
X133830000Y-77560000D01*
X133830000Y-79640000D02*
X133830000Y-80846000D01*
X133870000Y-76377000D02*
X133870000Y-77560000D01*
X133870000Y-79640000D02*
X133870000Y-80823000D01*
X133910000Y-76401000D02*
X133910000Y-77560000D01*
X133910000Y-79640000D02*
X133910000Y-80799000D01*
X133950000Y-76425000D02*
X133950000Y-77560000D01*
X133950000Y-79640000D02*
X133950000Y-80775000D01*
X133990000Y-76451000D02*
X133990000Y-77560000D01*
X133990000Y-79640000D02*
X133990000Y-80749000D01*
X134030000Y-76478000D02*
X134030000Y-77560000D01*
X134030000Y-79640000D02*
X134030000Y-80722000D01*
X134070000Y-76506000D02*
X134070000Y-77560000D01*
X134070000Y-79640000D02*
X134070000Y-80694000D01*
X134110000Y-76535000D02*
X134110000Y-77560000D01*
X134110000Y-79640000D02*
X134110000Y-80665000D01*
X134150000Y-76565000D02*
X134150000Y-77560000D01*
X134150000Y-79640000D02*
X134150000Y-80635000D01*
X134190000Y-76597000D02*
X134190000Y-77560000D01*
X134190000Y-79640000D02*
X134190000Y-80603000D01*
X134230000Y-76630000D02*
X134230000Y-77560000D01*
X134230000Y-79640000D02*
X134230000Y-80570000D01*
X134270000Y-76664000D02*
X134270000Y-77560000D01*
X134270000Y-79640000D02*
X134270000Y-80536000D01*
X134310000Y-76699000D02*
X134310000Y-77560000D01*
X134310000Y-79640000D02*
X134310000Y-80501000D01*
X134350000Y-76736000D02*
X134350000Y-77560000D01*
X134350000Y-79640000D02*
X134350000Y-80464000D01*
X134390000Y-76775000D02*
X134390000Y-77560000D01*
X134390000Y-79640000D02*
X134390000Y-80425000D01*
X134430000Y-76815000D02*
X134430000Y-77560000D01*
X134430000Y-79640000D02*
X134430000Y-80385000D01*
X134470000Y-76857000D02*
X134470000Y-77560000D01*
X134470000Y-79640000D02*
X134470000Y-80343000D01*
X134510000Y-76901000D02*
X134510000Y-77560000D01*
X134510000Y-79640000D02*
X134510000Y-80299000D01*
X134550000Y-76948000D02*
X134550000Y-77560000D01*
X134550000Y-79640000D02*
X134550000Y-80252000D01*
X134590000Y-76996000D02*
X134590000Y-77560000D01*
X134590000Y-79640000D02*
X134590000Y-80204000D01*
X134630000Y-77047000D02*
X134630000Y-77560000D01*
X134630000Y-79640000D02*
X134630000Y-80153000D01*
X134670000Y-77101000D02*
X134670000Y-77560000D01*
X134670000Y-79640000D02*
X134670000Y-80099000D01*
X134710000Y-77157000D02*
X134710000Y-77560000D01*
X134710000Y-79640000D02*
X134710000Y-80043000D01*
X134750000Y-77217000D02*
X134750000Y-77560000D01*
X134750000Y-79640000D02*
X134750000Y-79983000D01*
X134790000Y-77281000D02*
X134790000Y-77560000D01*
X134790000Y-79640000D02*
X134790000Y-79919000D01*
X134830000Y-77349000D02*
X134830000Y-77560000D01*
X134830000Y-79640000D02*
X134830000Y-79851000D01*
X134870000Y-77423000D02*
X134870000Y-79777000D01*
X134910000Y-77502000D02*
X134910000Y-79698000D01*
X134950000Y-77589000D02*
X134950000Y-79611000D01*
X134990000Y-77686000D02*
X134990000Y-79514000D01*
X135030000Y-77795000D02*
X135030000Y-79405000D01*
X135070000Y-77923000D02*
X135070000Y-79277000D01*
X135110000Y-78083000D02*
X135110000Y-79117000D01*
X135150000Y-78317000D02*
X135150000Y-78883000D01*
X135170000Y-78600000D02*
G75*
G02*
X129930000Y-78600000I-2620000J0D01*
G01*
X129930000Y-78600000D02*
G75*
G02*
X135170000Y-78600000I2620000J0D01*
G01*
%TO.C,U1*%
X125265000Y-93535000D02*
X129385000Y-93535000D01*
X125265000Y-93630000D02*
X125265000Y-93535000D01*
X125265000Y-98655000D02*
X125265000Y-98560000D01*
X129385000Y-93535000D02*
X129385000Y-93630000D01*
X129385000Y-98560000D02*
X129385000Y-98655000D01*
X129385000Y-98655000D02*
X125265000Y-98655000D01*
X124725000Y-93625000D02*
X124485000Y-93295000D01*
X124965000Y-93295000D01*
X124725000Y-93625000D01*
G36*
X124725000Y-93625000D02*
G01*
X124485000Y-93295000D01*
X124965000Y-93295000D01*
X124725000Y-93625000D01*
G37*
%TD*%
M02*
