%TF.GenerationSoftware,KiCad,Pcbnew,9.0.7*%
%TF.CreationDate,2026-03-26T11:46:42-04:00*%
%TF.ProjectId,heartpcb,68656172-7470-4636-922e-6b696361645f,rev?*%
%TF.SameCoordinates,Original*%
%TF.FileFunction,Copper,L2,Bot*%
%TF.FilePolarity,Positive*%
%FSLAX46Y46*%
G04 Gerber Fmt 4.6, Leading zero omitted, Abs format (unit mm)*
G04 Created by KiCad (PCBNEW 9.0.7) date 2026-03-26 11:46:42*
%MOMM*%
%LPD*%
G01*
G04 APERTURE LIST*
G04 Aperture macros list*
%AMRoundRect*
0 Rectangle with rounded corners*
0 $1 Rounding radius*
0 $2 $3 $4 $5 $6 $7 $8 $9 X,Y pos of 4 corners*
0 Add a 4 corners polygon primitive as box body*
4,1,4,$2,$3,$4,$5,$6,$7,$8,$9,$2,$3,0*
0 Add four circle primitives for the rounded corners*
1,1,$1+$1,$2,$3*
1,1,$1+$1,$4,$5*
1,1,$1+$1,$6,$7*
1,1,$1+$1,$8,$9*
0 Add four rect primitives between the rounded corners*
20,1,$1+$1,$2,$3,$4,$5,0*
20,1,$1+$1,$4,$5,$6,$7,0*
20,1,$1+$1,$6,$7,$8,$9,0*
20,1,$1+$1,$8,$9,$2,$3,0*%
G04 Aperture macros list end*
%TA.AperFunction,ComponentPad*%
%ADD10C,1.800000*%
%TD*%
%TA.AperFunction,ComponentPad*%
%ADD11R,1.800000X1.800000*%
%TD*%
%TA.AperFunction,ComponentPad*%
%ADD12C,2.000000*%
%TD*%
%TA.AperFunction,ComponentPad*%
%ADD13C,1.440000*%
%TD*%
%TA.AperFunction,ComponentPad*%
%ADD14C,1.600000*%
%TD*%
%TA.AperFunction,ComponentPad*%
%ADD15RoundRect,0.250000X-0.550000X-0.550000X0.550000X-0.550000X0.550000X0.550000X-0.550000X0.550000X0*%
%TD*%
%TA.AperFunction,Conductor*%
%ADD16C,0.200000*%
%TD*%
G04 APERTURE END LIST*
D10*
%TO.P,D7,2,A*%
%TO.N,TOUT*%
X84290000Y-59250000D03*
D11*
%TO.P,D7,1,K*%
%TO.N,GND*%
X81750000Y-59250000D03*
%TD*%
D10*
%TO.P,D16,2,A*%
%TO.N,TOUT*%
X130500000Y-116400000D03*
D11*
%TO.P,D16,1,K*%
%TO.N,GND*%
X127960000Y-116400000D03*
%TD*%
%TO.P,D8,1,K*%
%TO.N,GND*%
X97860000Y-63700000D03*
D10*
%TO.P,D8,2,A*%
%TO.N,TOUT*%
X100400000Y-63700000D03*
%TD*%
D11*
%TO.P,D6,1,K*%
%TO.N,GND*%
X68960000Y-70500000D03*
D10*
%TO.P,D6,2,A*%
%TO.N,TOUT*%
X71500000Y-70500000D03*
%TD*%
%TO.P,D5,2,A*%
%TO.N,TOUT*%
X71140000Y-82600000D03*
D11*
%TO.P,D5,1,K*%
%TO.N,GND*%
X68600000Y-82600000D03*
%TD*%
D12*
%TO.P,SW1,1,1*%
%TO.N,Net-(BT1-+)*%
X103300000Y-102100000D03*
X109800000Y-102100000D03*
%TO.P,SW1,2,2*%
%TO.N,Net-(U1-VCC)*%
X103300000Y-106600000D03*
X109800000Y-106600000D03*
%TD*%
D13*
%TO.P,R3,1*%
%TO.N,Net-(U1-DISCH)*%
X89860000Y-86040000D03*
%TO.P,R3,2*%
%TO.N,Net-(U1-VCC)*%
X92400000Y-83500000D03*
%TO.P,R3,3*%
%TO.N,N/C*%
X89860000Y-80960000D03*
%TD*%
D14*
%TO.P,R2,1*%
%TO.N,Net-(U1-DISCH)*%
X105250000Y-87060000D03*
%TO.P,R2,2*%
%TO.N,Net-(U1-THRES)*%
X105250000Y-79440000D03*
%TD*%
%TO.P,R1,1*%
%TO.N,Net-(U1-OUT)*%
X98500000Y-87410000D03*
%TO.P,R1,2*%
%TO.N,TOUT*%
X98500000Y-79790000D03*
%TD*%
D11*
%TO.P,D15,1,K*%
%TO.N,GND*%
X143060000Y-101100000D03*
D10*
%TO.P,D15,2,A*%
%TO.N,TOUT*%
X145600000Y-101100000D03*
%TD*%
D11*
%TO.P,D14,1,K*%
%TO.N,GND*%
X154160000Y-87300000D03*
D10*
%TO.P,D14,2,A*%
%TO.N,TOUT*%
X156700000Y-87300000D03*
%TD*%
D11*
%TO.P,D13,1,K*%
%TO.N,GND*%
X151760000Y-73800000D03*
D10*
%TO.P,D13,2,A*%
%TO.N,TOUT*%
X154300000Y-73800000D03*
%TD*%
D11*
%TO.P,D12,1,K*%
%TO.N,GND*%
X144060000Y-63300000D03*
D10*
%TO.P,D12,2,A*%
%TO.N,TOUT*%
X146600000Y-63300000D03*
%TD*%
D11*
%TO.P,D11,1,K*%
%TO.N,GND*%
X132660000Y-58100000D03*
D10*
%TO.P,D11,2,A*%
%TO.N,TOUT*%
X135200000Y-58100000D03*
%TD*%
D11*
%TO.P,D10,1,K*%
%TO.N,GND*%
X121760000Y-63800000D03*
D10*
%TO.P,D10,2,A*%
%TO.N,TOUT*%
X124300000Y-63800000D03*
%TD*%
D11*
%TO.P,D9,1,K*%
%TO.N,GND*%
X110960000Y-73800000D03*
D10*
%TO.P,D9,2,A*%
%TO.N,TOUT*%
X113500000Y-73800000D03*
%TD*%
D11*
%TO.P,D4,1,K*%
%TO.N,GND*%
X73100000Y-96500000D03*
D10*
%TO.P,D4,2,A*%
%TO.N,TOUT*%
X75640000Y-96500000D03*
%TD*%
D11*
%TO.P,D3,1,K*%
%TO.N,GND*%
X84560000Y-107100000D03*
D10*
%TO.P,D3,2,A*%
%TO.N,TOUT*%
X87100000Y-107100000D03*
%TD*%
D11*
%TO.P,D2,1,K*%
%TO.N,GND*%
X97060000Y-117600000D03*
D10*
%TO.P,D2,2,A*%
%TO.N,TOUT*%
X99600000Y-117600000D03*
%TD*%
D11*
%TO.P,D1,1,K*%
%TO.N,GND*%
X109700000Y-126900000D03*
D10*
%TO.P,D1,2,A*%
%TO.N,TOUT*%
X112240000Y-126900000D03*
%TD*%
D15*
%TO.P,C1,1*%
%TO.N,Net-(U1-THRES)*%
X131300000Y-78600000D03*
D14*
%TO.P,C1,2*%
%TO.N,GND*%
X133800000Y-78600000D03*
%TD*%
D15*
%TO.P,BT1,1,+*%
%TO.N,Net-(BT1-+)*%
X112700000Y-114100000D03*
D14*
%TO.P,BT1,2,-*%
%TO.N,GND*%
X116300000Y-114100000D03*
%TD*%
D16*
%TO.N,TOUT*%
X139600000Y-62500000D02*
X140250000Y-62500000D01*
X135200000Y-58100000D02*
X139600000Y-62500000D01*
X145399000Y-64501000D02*
X146600000Y-63300000D01*
X140250000Y-62500000D02*
X142251000Y-64501000D01*
X142251000Y-64501000D02*
X145399000Y-64501000D01*
X99600000Y-117600000D02*
X102940000Y-117600000D01*
X102940000Y-117600000D02*
X112240000Y-126900000D01*
%TO.N,GND*%
X97860000Y-63700000D02*
X113861000Y-79701000D01*
X113861000Y-79701000D02*
X132699000Y-79701000D01*
X132699000Y-79701000D02*
X133800000Y-78600000D01*
%TD*%
M02*
